<svg id="visual" viewBox="0 0 900 600" width="900" height="600" xmlns="http://www.w3.org/2000/svg" xmlns:xlink="http://www.w3.org/1999/xlink" version="1.1"><path d="M0 217L82 235L164 253L245 253L327 109L409 127L491 91L573 115L655 133L736 193L818 121L900 103L900 0L818 0L736 0L655 0L573 0L491 0L409 0L327 0L245 0L164 0L82 0L0 0Z" fill="#038373"></path><path d="M0 403L82 337L164 445L245 355L327 355L409 325L491 379L573 337L655 409L736 343L818 397L900 331L900 101L818 119L736 191L655 131L573 113L491 89L409 125L327 107L245 251L164 251L82 233L0 215Z" fill="#52998b"></path><path d="M0 487L82 385L164 511L245 469L327 493L409 409L491 427L573 409L655 463L736 475L818 451L900 469L900 329L818 395L736 341L655 407L573 335L491 377L409 323L327 353L245 353L164 443L82 335L0 401Z" fill="#82afa5"></path><path d="M0 547L82 481L164 553L245 535L327 529L409 505L491 505L573 475L655 523L736 517L818 523L900 535L900 467L818 449L736 473L655 461L573 407L491 425L409 407L327 491L245 467L164 509L82 383L0 485Z" fill="#aec5bf"></path><path d="M0 601L82 601L164 601L245 601L327 601L409 601L491 601L573 601L655 601L736 601L818 601L900 601L900 533L818 521L736 515L655 521L573 473L491 503L409 503L327 527L245 533L164 551L82 479L0 545Z" fill="#dadada"></path></svg>